<svg width="34" height="34" viewBox="0 0 34 34" fill="none" xmlns="http://www.w3.org/2000/svg">
<g opacity="0.2">
<circle cx="17" cy="17" r="16" fill="white"/>
<mask id="mask0" mask-type="alpha" maskUnits="userSpaceOnUse" x="1" y="1" width="32" height="32">
<circle cx="17" cy="17" r="16" fill="white"/>
</mask>
<g mask="url(#mask0)">
<path fill-rule="evenodd" clip-rule="evenodd" d="M23.6118 16.0894C23.6172 13.7143 23.0464 11.8735 21.9116 10.6155C20.7808 9.36167 19.1485 8.72623 17.0584 8.72623C15.0556 8.72623 13.4751 9.33389 12.3611 10.5321C11.1516 11.8322 10.5331 13.7927 10.519 16.363C10.2951 16.5105 9.99598 16.789 9.91799 17.3539C9.68672 19.0401 10.3604 20.7107 10.472 20.9728C10.5459 21.1809 10.8041 21.7999 11.3291 22.0236C12.1298 25.3312 14.8566 27.5154 17.0584 27.5154C19.7764 27.5154 22.0205 25.3476 22.7836 22.0585C23.3712 21.8726 23.6549 21.193 23.7329 20.9728C23.8445 20.7107 24.5181 19.0394 24.2868 17.3539C24.2142 16.8303 23.9466 16.358 23.6118 16.0894Z" stroke="#59595A" stroke-width="1.6"/>
<path d="M14.0915 25.0263C14.0915 25.0263 14.0915 28.3603 9.94577 29.4716C6.54604 30.3829 6.63123 33.5363 6.77198 34.6417C6.80333 34.8879 6.96616 35.0872 7.1933 35.1873C8.71328 35.8569 14.7002 38.4117 17.5649 38.4117C20.2051 38.4117 25.7543 35.883 27.2097 35.1977C27.4364 35.091 27.5938 34.8851 27.6201 34.6359C27.7536 33.3694 27.8081 29.4716 23.4196 29.4716C20.3102 29.4716 20.3102 25.0263 20.3102 25.0263" stroke="#59595A" stroke-width="1.6"/>
<path fill-rule="evenodd" clip-rule="evenodd" d="M21.3467 7.24517C21.3467 7.24517 13.0551 3.91121 8.90934 10.5791C4.76356 17.2471 8.90934 22.8037 8.90934 22.8037C8.90934 22.8037 10.9822 25.0263 7.8729 25.0263C4.76356 25.0263 12.0187 27.2489 12.0187 27.2489L14.0916 25.0263L10.9822 20.581V17.2471L12.0187 13.9131C12.0187 13.9131 12.0187 15.0244 16.1645 13.9131C20.3102 12.8018 20.3102 10.5791 20.3102 10.5791L22.3831 11.6905V16.1357L23.4196 17.2471V19.4697L20.3102 23.915C20.3102 23.915 20.3102 26.1376 24.456 26.1376C28.6018 26.1376 27.5653 22.8037 27.5653 22.8037C27.5653 22.8037 24.456 22.8037 25.4925 20.581C26.5289 18.3584 27.5654 15.0244 26.5289 12.8018C25.4925 10.5791 21.3467 7.24517 21.3467 7.24517Z" fill="white" stroke="#59595A" stroke-width="1.6" stroke-linecap="round" stroke-linejoin="round"/>
</g>
<circle cx="17" cy="17" r="16" stroke="#59595A"/>
<mask id="mask1" mask-type="alpha" maskUnits="userSpaceOnUse" x="0" y="0" width="34" height="34">
<circle cx="17" cy="17" r="16" fill="white" stroke="white"/>
</mask>
<g mask="url(#mask1)">
</g>
</g>
</svg>
