<svg width="34" height="34" viewBox="0 0 34 34" fill="none" xmlns="http://www.w3.org/2000/svg">
<g opacity="0.2">
<circle cx="17" cy="17" r="16" fill="white"/>
<mask id="mask0" mask-type="alpha" maskUnits="userSpaceOnUse" x="1" y="1" width="32" height="32">
<circle cx="17" cy="17" r="16" fill="white"/>
</mask>
<g mask="url(#mask0)">
<path fill-rule="evenodd" clip-rule="evenodd" d="M23.8816 14.7844C23.8871 12.5154 23.3065 10.7569 22.152 9.55506C21.0017 8.35729 19.3412 7.75024 17.2149 7.75024C15.1776 7.75024 13.5697 8.33075 12.4365 9.47543C11.2061 10.7174 10.5769 12.5903 10.5626 15.0457C10.3348 15.1866 10.0305 15.4527 9.95117 15.9923C9.71591 17.6032 10.4012 19.1991 10.5147 19.4495C10.5899 19.6482 10.8526 20.2396 11.3867 20.4533C12.2012 23.6131 14.9751 25.6997 17.2149 25.6997C19.9799 25.6997 22.2628 23.6288 23.0391 20.4867C23.6368 20.3091 23.9254 19.6598 24.0047 19.4495C24.1183 19.1991 24.8035 17.6025 24.5683 15.9923C24.4944 15.4921 24.2222 15.0409 23.8816 14.7844Z" stroke="#59595A" stroke-width="1.6"/>
<path d="M14.1968 23.3218C14.1968 23.3218 14.1968 26.5068 9.97943 27.5685C6.60401 28.4181 6.6055 31.308 6.74063 32.4281C6.77456 32.7093 6.97997 32.9253 7.25232 33.0031C8.8521 33.4602 14.4573 35 17.3599 35C20.4254 35 25.8585 33.4778 27.4522 33.0111C27.7318 32.9292 27.9405 32.7005 27.9687 32.4105C28.095 31.1154 28.0432 27.5685 23.686 27.5685C20.523 27.5685 20.523 23.3218 20.523 23.3218" stroke="#59595A" stroke-width="1.6"/>
</g>
<circle cx="17" cy="17" r="16" stroke="#59595A"/>
<mask id="mask1" mask-type="alpha" maskUnits="userSpaceOnUse" x="0" y="0" width="34" height="34">
<circle cx="17" cy="17" r="16" fill="white" stroke="white"/>
</mask>
<g mask="url(#mask1)">
</g>
</g>
</svg>
